<?xml version="1.0" encoding="UTF-8" standalone="no"?>
<!DOCTYPE svg PUBLIC "-//W3C//DTD SVG 1.1//EN" "http://www.w3.org/Graphics/SVG/1.1/DTD/svg11.dtd">
<svg viewBox="0 0 622 668" version="1.1" xmlns="http://www.w3.org/2000/svg" xmlns:xlink="http://www.w3.org/1999/xlink" xml:space="preserve" style="fill-rule:evenodd;clip-rule:evenodd;stroke-linejoin:round;stroke-miterlimit:2;">
    <g transform="matrix(1,0,0,1,-89,-66)">
        <path id="mastodon-icon" d="M710.9,285.533C710.9,140.9 616.133,98.533 616.133,98.533C568.367,76.6 486.333,67.367 401.1,66.667L399,66.667C313.767,67.367 231.8,76.6 184,98.533C184,98.533 89.233,140.933 89.233,285.533C89.233,318.633 88.6,358.233 89.633,400.233C93.067,541.667 115.567,681.067 246.333,715.667C306.633,731.633 358.4,734.967 400.067,732.667C475.667,728.467 518.1,705.7 518.1,705.7L515.6,650.833C515.6,650.833 461.567,667.867 400.9,665.8C340.767,663.733 277.333,659.333 267.6,585.5C266.681,578.639 266.235,571.722 266.267,564.8C266.298,557.878 325.267,579.233 400.067,582.667C445.8,584.767 488.667,580 532.233,574.8C615.767,564.833 688.5,513.367 697.633,466.333C712.1,392.233 710.9,285.533 710.9,285.533ZM599.133,471.867L529.767,471.867L529.767,301.9C529.767,266.067 514.7,247.9 484.533,247.9C451.2,247.9 434.5,269.467 434.5,312.133L434.5,405.167L365.533,405.167L365.533,312.133C365.533,269.467 348.833,247.9 315.467,247.9C285.3,247.9 270.233,266.1 270.233,301.9L270.233,471.867L200.867,471.867L200.867,296.767C200.867,260.967 209.967,232.533 228.3,211.5C247.167,190.467 271.867,179.667 302.567,179.667C338.067,179.667 364.967,193.3 382.733,220.6L400,249.567L417.3,220.6C435.067,193.3 461.967,179.667 497.467,179.667C528.133,179.667 552.867,190.467 571.733,211.5C590.033,232.533 599.133,260.967 599.133,296.767L599.133,471.867Z" />
    </g>
</svg>
