<?xml version="1.0" encoding="UTF-8" standalone="no"?>
<!DOCTYPE svg PUBLIC "-//W3C//DTD SVG 1.1//EN" "http://www.w3.org/Graphics/SVG/1.1/DTD/svg11.dtd">
<svg  viewBox="0 0 1560 1400" version="1.1" xmlns="http://www.w3.org/2000/svg" xmlns:xlink="http://www.w3.org/1999/xlink" xml:space="preserve" style="fill-rule:evenodd;clip-rule:evenodd;stroke-linejoin:round;stroke-miterlimit:2;">
    <g transform="matrix(1,0,0,1,-470,-550)">
        <g id="briefcase">
            <path d="M990,690C990,678.984 998.984,670 1010,670L1490,670C1501.02,670 1510,678.984 1510,690L1510,830L990,830L990,690ZM1850,830L1630,830L1630,690C1630,613 1567,550 1490,550L1010,550C933,550 870,613 870,690L870,830L650,830C551,830 470,911 470,1010L470,1161.11C470,1242.83 531.577,1311.41 612.82,1320.19L1070,1369.56L1070,1290.36C1070,1257.36 1097,1230.36 1130,1230.36L1370,1230.36C1403,1230.36 1430,1257.36 1430,1290.36L1430,1369.56L1887.6,1318.92C1968.66,1309.95 2030,1241.44 2030,1159.89L2030,1010C2030,911 1949,830 1850,830Z" style="fill-rule:nonzero;"/>
            <path d="M1250,1550.36C1283.05,1550.36 1310,1523.41 1310,1490.36L1310,1350.36L1190,1350.36L1190,1490.36C1190,1523.41 1216.95,1550.36 1250,1550.36Z" style="fill-rule:nonzero;"/>
            <path d="M1429.9,1491.37C1429.33,1590.11 1348.87,1670.36 1250,1670.36C1151.13,1670.36 1070.67,1590.11 1070.1,1491.37L550,1434.12L550,1770C550,1869.22 630.781,1950 730,1950L1770,1950C1869.22,1950 1950,1869.22 1950,1770L1950,1434.12L1429.9,1491.37Z" style="fill-rule:nonzero;"/>
        </g>
    </g>
</svg>
