<?xml version="1.0" encoding="UTF-8" standalone="no"?>
<!DOCTYPE svg PUBLIC "-//W3C//DTD SVG 1.1//EN" "http://www.w3.org/Graphics/SVG/1.1/DTD/svg11.dtd">
<svg id="calendarIconSvg" viewBox="0 0 6329 5834" version="1.1" xmlns="http://www.w3.org/2000/svg" xmlns:xlink="http://www.w3.org/1999/xlink" xml:space="preserve" style="fill-rule:evenodd;clip-rule:evenodd;stroke-linejoin:round;stroke-miterlimit:2;">
    <g transform="matrix(1,0,0,1,0,-2)">
        <g transform="matrix(4.16667,0,0,4.16667,0,0)">
            <g id="calendar">
                <path d="M1400.18,142.873L1281.53,142.873L1281.53,237.789C1281.53,290.124 1238.95,332.704 1186.62,332.704C1134.28,332.704 1091.7,290.124 1091.7,237.789L1091.7,142.873L427.296,142.873L427.296,237.789C427.296,290.124 384.716,332.704 332.381,332.704C280.045,332.704 237.465,290.124 237.465,237.789L237.465,142.873L118.822,142.873C53.405,142.873 0.177,196.101 0.177,261.517L0.177,1281.86C0.177,1347.27 53.405,1400.5 118.822,1400.5L1400.18,1400.5C1465.59,1400.5 1518.82,1347.27 1518.82,1281.86L1518.82,261.517C1518.82,196.101 1465.59,142.873 1400.18,142.873ZM1423.91,1281.86C1423.91,1294.72 1413.04,1305.59 1400.18,1305.59L118.822,1305.59C105.961,1305.59 95.093,1294.72 95.093,1281.86L95.093,427.62L1423.91,427.62L1423.91,1281.86Z" />
                <path d="M522.211,688.636L688.313,688.636C701.36,688.636 712.042,677.954 712.042,664.908L712.042,546.263C712.042,533.217 701.36,522.535 688.313,522.535L522.211,522.535C509.166,522.535 498.483,533.217 498.483,546.263L498.483,664.908C498.483,677.954 509.166,688.636 522.211,688.636Z" />
                <path d="M830.686,688.636L996.788,688.636C1009.83,688.636 1020.52,677.954 1020.52,664.908L1020.52,546.263C1020.52,533.217 1009.83,522.535 996.788,522.535L830.686,522.535C817.64,522.535 806.958,533.217 806.958,546.263L806.958,664.908C806.958,677.954 817.64,688.636 830.686,688.636Z" />
                <path d="M1139.16,688.636L1305.26,688.636C1318.31,688.636 1328.99,677.954 1328.99,664.908L1328.99,546.263C1328.99,533.217 1318.31,522.535 1305.26,522.535L1139.16,522.535C1126.12,522.535 1115.43,533.217 1115.43,546.263L1115.43,664.908C1115.43,677.954 1126.12,688.636 1139.16,688.636Z" />
                <path d="M522.211,949.652L688.313,949.652C701.36,949.652 712.042,938.969 712.042,925.923L712.042,807.279C712.042,794.233 701.36,783.55 688.313,783.55L522.211,783.55C509.166,783.55 498.483,794.233 498.483,807.279L498.483,925.923C498.483,938.969 509.166,949.652 522.211,949.652Z" />
                <path d="M213.737,949.652L379.838,949.652C392.885,949.652 403.568,938.969 403.568,925.923L403.568,807.279C403.568,794.233 392.885,783.55 379.838,783.55L213.737,783.55C200.691,783.55 190.008,794.233 190.008,807.279L190.008,925.923C190.008,938.969 200.691,949.652 213.737,949.652Z" />
                <path d="M830.686,949.652L996.788,949.652C1009.83,949.652 1020.52,938.969 1020.52,925.923L1020.52,807.279C1020.52,794.233 1009.83,783.55 996.788,783.55L830.686,783.55C817.64,783.55 806.958,794.233 806.958,807.279L806.958,925.923C806.958,938.969 817.64,949.652 830.686,949.652Z" />
                <path d="M1139.16,949.652L1305.26,949.652C1318.31,949.652 1328.99,938.969 1328.99,925.923L1328.99,807.279C1328.99,794.233 1318.31,783.55 1305.26,783.55L1139.16,783.55C1126.12,783.55 1115.43,794.233 1115.43,807.279L1115.43,925.923C1115.43,938.969 1126.12,949.652 1139.16,949.652Z" />
                <path d="M522.211,1210.67L688.313,1210.67C701.36,1210.67 712.042,1199.99 712.042,1186.94L712.042,1068.3C712.042,1055.25 701.36,1044.57 688.313,1044.57L522.211,1044.57C509.166,1044.57 498.483,1055.25 498.483,1068.3L498.483,1186.94C498.483,1199.99 509.166,1210.67 522.211,1210.67Z" />
                <path d="M213.737,1210.67L379.838,1210.67C392.885,1210.67 403.568,1199.99 403.568,1186.94L403.568,1068.3C403.568,1055.25 392.885,1044.57 379.838,1044.57L213.737,1044.57C200.691,1044.57 190.008,1055.25 190.008,1068.3L190.008,1186.94C190.008,1199.99 200.691,1210.67 213.737,1210.67Z" />
                <path d="M830.686,1210.67L996.788,1210.67C1009.83,1210.67 1020.52,1199.99 1020.52,1186.94L1020.52,1068.3C1020.52,1055.25 1009.83,1044.57 996.788,1044.57L830.686,1044.57C817.64,1044.57 806.958,1055.25 806.958,1068.3L806.958,1186.94C806.958,1199.99 817.64,1210.67 830.686,1210.67Z" />
                <path d="M332.381,285.247C358.589,285.247 379.838,263.997 379.838,237.789L379.838,47.958C379.838,21.749 358.589,0.5 332.381,0.5C306.172,0.5 284.923,21.749 284.923,47.958L284.923,237.789C284.923,263.997 306.172,285.247 332.381,285.247Z" />
                <path d="M1186.62,285.247C1212.83,285.247 1234.08,263.997 1234.08,237.789L1234.08,47.958C1234.08,21.749 1212.83,0.5 1186.62,0.5C1160.41,0.5 1139.16,21.749 1139.16,47.958L1139.16,237.789C1139.16,263.997 1160.41,285.247 1186.62,285.247Z"/>
            </g>
        </g>
    </g>
</svg>
