<?xml version="1.0" encoding="UTF-8" standalone="no"?>
<!DOCTYPE svg PUBLIC "-//W3C//DTD SVG 1.1//EN" "http://www.w3.org/Graphics/SVG/1.1/DTD/svg11.dtd">
<svg viewBox="0 0 252 252" version="1.1" xmlns="http://www.w3.org/2000/svg" xmlns:xlink="http://www.w3.org/1999/xlink" xml:space="preserve">
    <g transform="matrix(1,0,0,1,-842,-761)">
        <g id="crown">
            <path d="M968.018,969.164C955.526,969.164 943.392,966.286 932.45,961C933.406,959.843 933.997,959.169 933.997,959.169L924.995,954.132C924.995,954.132 924.73,955.002 924.244,956.441C909.076,946.846 896.995,932.262 890.717,914.213C892.211,914.072 893.107,914.013 893.107,914.013L890.303,904.085C890.303,904.085 889.499,904.513 888.138,905.187C883.93,886.533 886.488,867.775 894.293,851.622C895.448,852.578 896.122,853.168 896.122,853.168L901.16,844.167C901.16,844.167 900.291,843.901 898.852,843.415C908.447,828.247 923.029,816.167 941.078,809.888C941.22,811.383 941.278,812.278 941.278,812.278L951.206,809.474C951.206,809.474 950.778,808.67 950.105,807.309C956.123,805.952 962.153,805.299 968.102,805.299C980.593,805.299 992.729,808.177 1003.67,813.464C1002.71,814.619 1002.12,815.293 1002.12,815.293L1011.13,820.331C1011.13,820.331 1011.39,819.461 1011.88,818.023C1027.04,827.618 1039.13,842.201 1045.4,860.25C1043.91,860.392 1043.01,860.451 1043.01,860.451L1045.82,870.378C1045.82,870.378 1046.62,869.95 1047.98,869.277C1052.19,887.931 1049.63,906.688 1041.83,922.841C1040.67,921.885 1040,921.294 1040,921.294L1034.96,930.297C1034.96,930.297 1035.83,930.563 1037.27,931.049C1027.67,946.217 1013.09,958.297 995.042,964.575C994.901,963.081 994.842,962.186 994.842,962.186L984.914,964.99C984.914,964.99 985.342,965.792 986.015,967.153C979.997,968.511 973.967,969.164 968.018,969.164ZM968.069,871.091C966.617,871.091 965.141,871.289 963.675,871.703C955.099,874.125 950.109,883.04 952.531,891.617C954.539,898.728 961.01,903.372 968.052,903.372C969.503,903.372 970.98,903.175 972.446,902.761C981.022,900.339 986.012,891.423 983.59,882.847C981.582,875.736 975.111,871.091 968.069,871.091ZM911.014,890.228C910.334,890.228 909.655,890.319 908.986,890.508C903.79,891.976 901.17,898.798 903.132,905.748C904.841,911.801 909.465,915.954 914.062,915.954C914.742,915.954 915.422,915.863 916.091,915.674C921.286,914.207 923.906,907.385 921.944,900.436C920.234,894.381 915.612,890.228 911.014,890.228ZM951.787,933.087C946.479,933.087 941.995,935.701 940.932,939.857C939.595,945.087 944.181,950.778 951.177,952.566C952.613,952.933 954.039,953.108 955.411,953.108C960.718,953.108 965.203,950.493 966.266,946.337C967.604,941.108 963.017,935.416 956.021,933.628C954.584,933.261 953.159,933.087 951.787,933.087ZM1012.53,915.804C1009.14,915.804 1005.33,917.44 1002.29,920.533C997.232,925.683 996.259,932.927 1000.11,936.71C1001.65,938.223 1003.73,938.953 1006,938.953C1009.4,938.953 1013.21,937.314 1016.24,934.225C1021.3,929.07 1022.29,921.822 1018.43,918.047C1016.88,916.532 1014.8,915.804 1012.53,915.804ZM980.678,821.527C975.412,821.527 970.96,824.107 969.878,828.232C968.509,833.453 973.061,839.17 980.046,841.002C981.514,841.387 982.972,841.57 984.373,841.57C989.638,841.57 994.091,838.989 995.173,834.866C996.543,829.644 991.99,823.926 985.005,822.094C983.537,821.709 982.079,821.527 980.678,821.527ZM1021.85,858.933C1021.18,858.933 1020.52,859.02 1019.86,859.201C1014.66,860.632 1012,867.443 1013.92,874.405C1015.6,880.489 1020.22,884.677 1024.83,884.677C1025.5,884.677 1026.16,884.591 1026.82,884.41C1032.02,882.981 1034.68,876.168 1032.76,869.207C1031.08,863.122 1026.46,858.933 1021.85,858.933ZM930.035,835.375C926.655,835.375 922.861,836.989 919.828,840.042C914.738,845.164 913.718,852.401 917.547,856.205C919.094,857.742 921.197,858.484 923.489,858.484C926.87,858.484 930.663,856.871 933.696,853.818C938.786,848.695 939.806,841.457 935.977,837.654C934.43,836.117 932.327,835.375 930.035,835.375Z" />
            <path d="M855.37,938.031C851.407,938.031 846.45,931.36 843.891,922.293C841.13,912.518 842.201,903.659 846.283,902.507C846.579,902.424 846.882,902.383 847.192,902.383C849.717,902.383 852.645,905.093 855.101,909.406C856.464,911.07 857.907,912.612 858.82,912.975C859.844,913.381 861.079,913.56 862.46,913.56C870.381,913.56 883.094,907.684 888.138,905.187C889.499,904.513 890.303,904.085 890.303,904.085L893.107,914.013C893.107,914.013 892.211,914.072 890.717,914.213C884.171,914.835 866.14,917.051 861.625,922.906C860.998,923.719 860.527,925.981 860.201,928.196C860.235,933.369 858.859,937.178 856.279,937.907C855.983,937.99 855.679,938.031 855.37,938.031Z" />
            <path d="M896.122,853.168C896.122,853.168 895.448,852.578 894.293,851.622C889.431,847.603 876.047,837.14 868.495,837.14C868.177,837.14 867.869,837.158 867.573,837.197C866.555,837.327 864.623,838.594 862.826,839.93C860.01,842.784 857.174,844.458 854.951,844.458C854.306,844.458 853.712,844.317 853.186,844.023C849.485,841.952 850.506,833.086 855.466,824.223C859.721,816.62 865.492,811.487 869.383,811.487C870.029,811.487 870.623,811.629 871.15,811.923C873.606,813.297 873.981,817.665 872.507,823.036C872.294,825.177 872.223,827.288 872.613,828.191C875.554,835 892.589,841.299 898.852,843.415C900.291,843.901 901.16,844.167 901.16,844.167L896.122,853.168Z" />
            <path d="M941.278,812.278C941.278,812.278 941.22,811.383 941.078,809.888C940.457,803.342 938.241,785.311 932.386,780.796C931.573,780.169 929.311,779.699 927.096,779.373C927.034,779.374 926.974,779.374 926.912,779.374C921.833,779.374 918.106,777.999 917.386,775.449C916.232,771.368 923.223,765.822 932.998,763.062C936.667,762.026 940.207,761.529 943.26,761.529C948.338,761.529 952.066,762.904 952.785,765.453C953.55,768.163 950.728,771.516 945.887,774.272C944.223,775.636 942.68,777.079 942.317,777.991C939.582,784.887 947.173,801.385 950.105,807.309C950.778,808.67 951.206,809.474 951.206,809.474L941.278,812.278Z" />
            <path d="M1011.13,820.331L1002.12,815.293C1002.12,815.293 1002.71,814.619 1003.67,813.464C1007.86,808.398 1019.04,794.079 1018.1,786.745C1017.96,785.727 1016.7,783.794 1015.36,781.998C1011.68,778.364 1009.96,774.697 1011.27,772.358C1012.11,770.857 1014.07,770.132 1016.69,770.132C1020.53,770.132 1025.8,771.689 1031.07,774.638C1039.93,779.598 1045.44,786.62 1043.37,790.321C1042.53,791.821 1040.57,792.546 1037.95,792.545C1036.28,792.545 1034.35,792.252 1032.26,791.678C1031.22,791.575 1030.19,791.505 1029.3,791.505C1028.35,791.505 1027.57,791.584 1027.1,791.785C1020.29,794.725 1013.99,811.76 1011.88,818.023C1011.39,819.461 1011.13,820.331 1011.13,820.331Z" />
            <path d="M1088.93,872.081C1086.4,872.08 1083.48,869.371 1081.02,865.058C1079.66,863.394 1078.21,861.851 1077.3,861.489C1076.28,861.083 1075.04,860.904 1073.66,860.904C1065.74,860.904 1053.03,866.78 1047.98,869.277C1046.62,869.95 1045.82,870.378 1045.82,870.378L1043.01,860.451C1043.01,860.451 1043.91,860.392 1045.4,860.25C1051.95,859.629 1069.98,857.413 1074.5,851.557C1075.12,850.745 1075.59,848.483 1075.92,846.268C1075.89,841.094 1077.26,837.285 1079.84,836.557C1080.14,836.473 1080.44,836.433 1080.75,836.433C1084.71,836.433 1089.67,843.104 1092.23,852.17C1094.99,861.946 1093.92,870.804 1089.84,871.956C1089.54,872.04 1089.24,872.081 1088.93,872.081Z" />
            <path d="M1066.74,962.976C1066.09,962.976 1065.5,962.835 1064.97,962.54C1062.51,961.166 1062.14,956.799 1063.61,951.427C1063.83,949.286 1063.9,947.175 1063.51,946.273C1060.57,939.463 1043.53,933.164 1037.27,931.049C1035.83,930.563 1034.96,930.297 1034.96,930.297L1040,921.294C1040,921.294 1040.67,921.885 1041.83,922.841C1046.69,926.86 1060.07,937.325 1067.63,937.324C1067.94,937.324 1068.25,937.305 1068.55,937.267C1069.57,937.135 1071.5,935.87 1073.29,934.534C1076.11,931.68 1078.95,930.005 1081.17,930.005C1081.81,930.005 1082.41,930.146 1082.93,930.441C1086.64,932.512 1085.61,941.377 1080.65,950.241C1076.4,957.844 1070.63,962.977 1066.74,962.976Z" />
            <path d="M992.862,1012.93C987.783,1012.93 984.055,1011.56 983.335,1009.01C982.57,1006.3 985.393,1002.95 990.234,1000.19C991.899,998.827 993.442,997.385 993.804,996.471C996.539,989.577 988.947,973.078 986.015,967.153C985.342,965.792 984.914,964.99 984.914,964.99L994.842,962.186C994.842,962.186 994.901,963.081 995.042,964.575C995.664,971.119 997.879,989.153 1003.73,993.667C1004.55,994.294 1006.81,994.764 1009.02,995.09L1009.21,995.09C1014.29,995.09 1018.02,996.465 1018.74,999.014C1019.89,1003.1 1012.9,1008.64 1003.12,1011.4C999.453,1012.44 995.914,1012.93 992.862,1012.93Z" />
            <path d="M919.433,1004.33C915.59,1004.33 910.321,1002.77 905.051,999.826C896.187,994.866 890.681,987.844 892.751,984.143C893.591,982.642 895.548,981.918 898.168,981.918C899.837,981.918 901.775,982.212 903.866,982.786C904.904,982.888 905.935,982.958 906.825,982.958C907.77,982.958 908.555,982.88 909.02,982.679C915.829,979.739 922.128,962.703 924.244,956.441C924.73,955.002 924.995,954.132 924.995,954.132L933.997,959.169C933.997,959.169 933.406,959.843 932.45,961C928.262,966.067 917.077,980.386 918.025,987.719C918.156,988.737 919.423,990.668 920.759,992.465C924.441,996.1 926.16,999.766 924.851,1002.11C924.011,1003.61 922.054,1004.33 919.433,1004.33Z" />
        </g>
    </g>
</svg>
