<?xml version="1.0" encoding="UTF-8" standalone="no"?>
<!DOCTYPE svg PUBLIC "-//W3C//DTD SVG 1.1//EN" "http://www.w3.org/Graphics/SVG/1.1/DTD/svg11.dtd">
<svg aria-labelledby="title" role="img" viewBox="0 0 726 514" version="1.1" xmlns="http://www.w3.org/2000/svg" xmlns:xlink="http://www.w3.org/1999/xlink" xml:space="preserve" >
<title id="title" lang="en">James Hernandez — Senior User Experience Designer and Front-end Developer</title>
    <g transform="matrix(1,0,0,1,-108,-115)">
        <g id="JH-modern-logo">
            <g transform="matrix(0.870587,0,0,0.870587,-791.985,122.254)">
                <path d="M1535.73,0.34L1260.21,0.34L1260.21,99.147L1429.69,99.147L1429.69,322.986C1429.69,408.259 1384.71,475.052 1288.32,475.052C1192.73,475.052 1146.14,425.925 1146.14,329.409L1041.72,329.409C1041.72,488.712 1144.55,574.665 1288.32,574.665C1443.34,574.665 1535.73,468.629 1535.73,322.986L1535.73,0.34Z" />
            </g>
            <g transform="matrix(0.890529,0,0,0.890529,-879.821,120.811)">
                <path d="M1917.24,563.416L1917.24,1.952L1812.03,1.952L1812.03,238.91L1640.95,238.91L1640.95,336.911L1812.03,336.911L1812.03,563.416L1917.24,563.416Z" />
            </g>
        </g>
    </g>
</svg>
