<?xml version="1.0" encoding="UTF-8" standalone="no"?>
<!DOCTYPE svg PUBLIC "-//W3C//DTD SVG 1.1//EN" "http://www.w3.org/Graphics/SVG/1.1/DTD/svg11.dtd">
<svg viewBox="0 0 6621 6621" version="1.1" xmlns="http://www.w3.org/2000/svg" xmlns:xlink="http://www.w3.org/1999/xlink" xml:space="preserve" style="fill-rule:evenodd;clip-rule:evenodd;stroke-linecap:round;stroke-linejoin:round;stroke-miterlimit:2;">
    <g transform="matrix(1,0,0,1,-25360,-1426)">
        <g transform="matrix(4.16667,0,0,4.16667,0,0)">
            <g id="new-mag">
                <path d="M6971.87,1227.77C6801.53,1398.12 6525.34,1398.12 6355,1227.77C6184.65,1057.43 6184.65,781.241 6355,610.895C6525.34,440.549 6801.53,440.549 6971.87,610.895C7142.22,781.241 7142.22,1057.43 6971.87,1227.77ZM7071.42,511.351C6846.1,286.027 6480.77,286.027 6255.45,511.351C6030.13,736.673 6030.13,1101.99 6255.45,1327.32C6480.77,1552.64 6846.1,1552.64 7071.42,1327.32C7296.74,1101.99 7296.74,736.673 7071.42,511.351Z" />
                <path d="M6971.87,1227.77C6801.53,1398.12 6525.34,1398.12 6355,1227.77C6184.65,1057.43 6184.65,781.241 6355,610.895C6525.34,440.549 6801.53,440.549 6971.87,610.895C7142.22,781.241 7142.22,1057.43 6971.87,1227.77ZM7071.42,511.351C6846.1,286.027 6480.77,286.027 6255.45,511.351C6030.13,736.673 6030.13,1101.99 6255.45,1327.32C6480.77,1552.64 6846.1,1552.64 7071.42,1327.32C7296.74,1101.99 7296.74,736.673 7071.42,511.351Z" />
                <path d="M7115.56,1371.46C7088.07,1398.95 7058.5,1423.59 7027.23,1445.32L7487.28,1905.37C7521.66,1939.75 7577.41,1939.75 7611.79,1905.37L7649.47,1867.69C7683.85,1833.31 7683.85,1777.56 7649.47,1743.18L7189.42,1283.13C7167.7,1314.39 7143.05,1343.97 7115.56,1371.46Z" />
                <path d="M6663.44,603.321C6823.33,603.321 6952.95,732.943 6952.95,892.839" />
            </g>
        </g>
    </g>
</svg>
