<?xml version="1.0" encoding="UTF-8" standalone="no"?>
<!DOCTYPE svg PUBLIC "-//W3C//DTD SVG 1.1//EN" "http://www.w3.org/Graphics/SVG/1.1/DTD/svg11.dtd">
<svg viewBox="0 0 18 18" version="1.1" xmlns="http://www.w3.org/2000/svg" xmlns:xlink="http://www.w3.org/1999/xlink" xml:space="preserve">
    <g transform="matrix(1,0,0,1,-3,-3)">
        <path  d="M16.018,3.815L15.232,8L10.266,8L10.982,4.185L9.018,3.815L8.232,8L4,8L4,10L7.857,10L7.106,14L3,14L3,16L6.731,16L6.017,19.805L7.982,20.174L8.766,16L13.732,16L13.018,19.805L14.983,20.174L15.766,16L20,16L20,14L16.141,14L16.892,10L21,10L21,8L17.267,8L17.983,4.185L16.018,3.815ZM14.106,14L9.141,14L9.892,10L14.858,10L14.106,14Z" />
    </g>
</svg>
