<?xml version="1.0" encoding="UTF-8" standalone="no"?>
<!DOCTYPE svg PUBLIC "-//W3C//DTD SVG 1.1//EN" "http://www.w3.org/Graphics/SVG/1.1/DTD/svg11.dtd">
<svg width="100%" height="100%" viewBox="0 0 385 540" version="1.1" xmlns="http://www.w3.org/2000/svg" xmlns:xlink="http://www.w3.org/1999/xlink" xml:space="preserve" >
    <g transform="matrix(1,0,0,1,-821,-224)">
        <g id="resume">
            <path d="M927.659,305.189L927.659,234.392L837.051,312.28L920.568,312.28C924.478,312.28 927.659,309.1 927.659,305.189Z" />
            <path d="M939.913,224.384C939.981,224.362 940.049,224.341 940.115,224.321C940.048,224.342 939.982,224.361 939.913,224.384Z" />
            <path d="M1147.95,494.089L878.957,494.089C874.182,494.089 870.312,490.219 870.312,485.444C870.312,480.669 874.182,476.799 878.957,476.799L1147.95,476.799C1152.73,476.799 1156.6,480.669 1156.6,485.444C1156.6,490.219 1152.73,494.089 1147.95,494.089ZM1147.95,551.634L878.957,551.634C874.182,551.634 870.312,547.764 870.312,542.989C870.312,538.214 874.182,534.344 878.957,534.344L1147.95,534.344C1152.73,534.344 1156.6,538.214 1156.6,542.989C1156.6,547.764 1152.73,551.634 1147.95,551.634ZM1156.6,600.534C1156.6,605.309 1152.73,609.179 1147.95,609.179L878.957,609.179C874.182,609.179 870.312,605.309 870.312,600.534C870.312,595.759 874.182,591.889 878.957,591.889L1147.95,591.889C1152.73,591.889 1156.6,595.759 1156.6,600.534ZM1147.95,666.724L878.957,666.724C874.182,666.724 870.312,662.854 870.312,658.079C870.312,653.304 874.182,649.434 878.957,649.434L1147.95,649.434C1152.73,649.434 1156.6,653.304 1156.6,658.079C1156.6,662.854 1152.73,666.724 1147.95,666.724ZM932.454,419.254L1094.45,419.254C1099.23,419.254 1103.1,423.125 1103.1,427.899C1103.1,432.674 1099.23,436.544 1094.45,436.544L932.454,436.544C927.679,436.544 923.809,432.674 923.809,427.899C923.809,423.125 927.679,419.254 932.454,419.254ZM1181.2,224.062L942.026,224.062C942.026,224.062 941.269,224.016 940.297,224.273L940.298,305.189C940.298,316.069 931.447,324.919 920.568,324.919L826.269,324.919L822.65,324.943C822.016,325.784 821.671,326.719 821.671,328.402L821.671,739.861C821.671,753.135 832.431,763.895 845.705,763.895L1181.2,763.895C1194.48,763.895 1205.24,753.135 1205.24,739.861L1205.24,248.095C1205.24,234.822 1194.48,224.062 1181.2,224.062Z" />
        </g>
    </g>
</svg>
