<?xml version="1.0" encoding="UTF-8" standalone="no"?>
<!DOCTYPE svg PUBLIC "-//W3C//DTD SVG 1.1//EN" "http://www.w3.org/Graphics/SVG/1.1/DTD/svg11.dtd">
<svg width="100%" height="100%" viewBox="0 0 531 554" version="1.1" xmlns="http://www.w3.org/2000/svg" xmlns:xlink="http://www.w3.org/1999/xlink" xml:space="preserve">
    <g transform="matrix(1,0,0,1,-151,-223)">
        <g>
            <path d="M488.115,223.81L264.011,223.81C264.01,223.81 261.808,223.643 260.144,225.241L153.958,316.521C153.419,316.985 152.891,317.465 152.425,318.004C151.661,318.889 151.24,319.775 151.24,321.576L151.24,707.105C151.24,719.543 161.322,729.625 173.759,729.625L488.115,729.625C500.552,729.625 510.634,719.543 510.634,707.106L510.634,246.329C510.634,233.892 500.552,223.81 488.115,223.81Z" />
            <path d="M406.833,422.903L255.042,422.903C250.567,422.903 246.941,419.276 246.941,414.803C246.941,410.329 250.567,406.702 255.042,406.702L406.833,406.702C411.306,406.702 414.933,410.329 414.933,414.803C414.933,419.276 411.306,422.903 406.833,422.903Z" class="opposite" />
            <path d="M456.958,476.822L204.916,476.822C200.442,476.822 196.815,473.195 196.815,468.721C196.815,464.248 200.442,460.621 204.916,460.621L456.958,460.621C461.432,460.621 465.059,464.248 465.059,468.721C465.059,473.195 461.432,476.822 456.958,476.822Z" class="opposite" />
            <path d="M456.958,530.74L204.916,530.74C200.442,530.74 196.815,527.113 196.815,522.64C196.815,518.166 200.442,514.539 204.916,514.539L456.958,514.539C461.432,514.539 465.059,518.166 465.059,522.64C465.059,527.113 461.432,530.74 456.958,530.74Z" class="opposite"/>
            <path d="M456.958,584.659L204.916,584.659C200.442,584.659 196.815,581.032 196.815,576.559C196.815,572.085 200.442,568.458 204.916,568.458L456.958,568.458C461.432,568.458 465.059,572.085 465.059,576.559C465.059,581.032 461.432,584.659 456.958,584.659Z" class="opposite"/>
            <path d="M456.958,638.578L204.916,638.578C200.442,638.578 196.815,634.951 196.815,630.478C196.815,626.004 200.442,622.377 204.916,622.377L456.958,622.377C461.432,622.377 465.059,626.004 465.059,630.478C465.059,634.951 461.432,638.578 456.958,638.578Z" class="opposite"/>
            <path d="M664.121,282.983L521.086,249.656C521.424,251.207 521.614,252.814 521.614,254.467L521.614,411.089L550.222,417.738C554.58,418.751 557.291,423.104 556.278,427.462C555.266,431.82 550.912,434.531 546.554,433.519L521.614,427.722L521.614,466.445L586.84,481.604C591.198,482.617 593.91,486.971 592.897,491.328C591.884,495.686 587.531,498.397 583.173,497.385L521.614,483.078L521.614,521.802L574.635,534.123C578.993,535.136 581.704,539.489 580.691,543.847C579.679,548.205 575.325,550.916 570.967,549.903L521.614,538.434L521.614,577.156L562.429,586.643C566.787,587.655 569.499,592.009 568.486,596.366C567.473,600.724 563.119,603.436 558.762,602.423L521.614,593.789L521.614,632.512L550.224,639.161C554.581,640.174 557.292,644.527 556.28,648.885C555.267,653.242 550.914,655.954 546.556,654.941L521.614,649.145L521.614,715.244C521.614,727.681 511.532,737.763 499.095,737.763L386.94,737.763L549.341,775.603C561.453,778.425 573.56,770.894 576.382,758.781L680.942,310.024C683.765,297.912 676.233,285.805 664.121,282.983Z" />
            <path d="M556.278,427.462C557.291,423.104 554.58,418.751 550.222,417.738L521.614,411.089L521.614,427.722L546.554,433.519C550.912,434.531 555.266,431.82 556.278,427.462Z" class="opposite"/>
            <path d="M592.897,491.328C593.91,486.971 591.198,482.617 586.84,481.604L521.614,466.445L521.614,483.078L583.173,497.385C587.531,498.397 591.884,495.686 592.897,491.328Z" class="opposite"/>
            <path d="M580.691,543.847C581.704,539.489 578.993,535.136 574.635,534.123L521.614,521.802L521.614,538.434L570.967,549.903C575.325,550.916 579.679,548.205 580.691,543.847Z" class="opposite"/>
            <path d="M568.486,596.366C569.499,592.009 566.787,587.655 562.429,586.643L521.614,577.156L521.614,593.789L558.762,602.423C563.119,603.436 567.473,600.724 568.486,596.366Z" class="opposite"/>
            <path d="M556.28,648.885C557.292,644.527 554.581,640.174 550.224,639.161L521.614,632.512L521.614,649.145L546.556,654.941C550.914,655.954 555.267,653.242 556.28,648.885Z" class="opposite"/>
            <path d="M155.548,318.312L243.905,318.312C254.098,318.312 262.391,310.02 262.391,299.826L262.39,224.001C261.682,224.185 260.849,224.535 260.114,225.241L250.549,233.464L250.549,299.826C250.549,303.489 247.568,306.47 243.905,306.47L165.621,306.47L153.929,316.521C153.389,316.985 152.86,317.465 152.395,318.004C152.3,318.114 152.211,318.224 152.127,318.335L155.548,318.335L155.548,318.312Z" class="opposite"/>
        </g>
    </g>
</svg>
