<?xml version="1.0" encoding="UTF-8" standalone="no"?>
<!DOCTYPE svg PUBLIC "-//W3C//DTD SVG 1.1//EN" "http://www.w3.org/Graphics/SVG/1.1/DTD/svg11.dtd">
<svg width="100%" height="100%" viewBox="0 0 996 1318" version="1.1" xmlns="http://www.w3.org/2000/svg" xmlns:xlink="http://www.w3.org/1999/xlink" xml:space="preserve" >
    <g transform="matrix(1,0,0,1,-502,-336)">
        <g id="resume-icon">
            <path d="M1424.14,1542.69C1424.14,1563.02 1407.59,1579.57 1387.26,1579.57L612.745,1579.57C592.408,1579.57 575.864,1563.02 575.864,1542.69L575.864,716.545L771.335,716.545C832.344,716.545 881.979,666.91 881.979,605.901L881.979,410.43L1387.26,410.43C1407.59,410.43 1424.14,426.974 1424.14,447.311L1424.14,1542.69ZM808.217,462.588L808.217,605.901C808.217,626.238 791.672,642.782 771.335,642.782L628.022,642.782L808.217,462.588ZM1387.26,336.667L829.821,336.667L502.101,664.387L502.101,1542.69C502.101,1603.7 551.736,1653.33 612.745,1653.33L1387.26,1653.33C1448.26,1653.33 1497.9,1603.7 1497.9,1542.69L1497.9,447.311C1497.9,386.302 1448.26,336.667 1387.26,336.667Z" />
            <rect x="677.288" y="1426.51" width="645.422" height="73.77" />
            <rect x="677.288" y="1266.82" width="645.422" height="73.76" />
            <rect x="677.288" y="1107.12" width="645.422" height="73.76" />
            <rect x="677.288" y="947.423" width="645.422" height="73.757" />
            <rect x="677.288" y="787.726" width="645.422" height="73.763" />
            <rect x="950.21" y="572.708" width="372.5" height="73.763" />
        </g>
    </g>
</svg>
