<?xml version="1.0" encoding="UTF-8" standalone="no"?>
<!DOCTYPE svg PUBLIC "-//W3C//DTD SVG 1.1//EN" "http://www.w3.org/Graphics/SVG/1.1/DTD/svg11.dtd">
<svg id="rssLogoSvg" viewBox="0 0 5098 1583" version="1.1" xmlns="http://www.w3.org/2000/svg" xmlns:xlink="http://www.w3.org/1999/xlink" xml:space="preserve">
    <g transform="matrix(1,0,0,1,-951,-691)">
        <g>
            <path d="M1672.2,2149.5L1674.56,2148.98C1738.52,2134.84 1783.24,2077.49 1782.19,2011.99C1778.67,1791.73 1908.82,1589.08 2111.36,1499.5C2171.37,1472.96 2204.63,1408.1 2190.47,1344.03L2190.26,1343.11C2171.58,1258.61 2080.3,1212.2 2001.06,1246.99C1695.59,1381.09 1499.34,1686.42 1505.26,2018.16C1506.81,2104.81 1587.58,2168.21 1672.2,2149.5Z" />
            <path d="M2066.47,2026.57C2094.18,2151.89 2218.59,2230.74 2344.61,2202.88C2470.64,2175.01 2550.2,2051.06 2522.49,1925.74C2494.79,1800.42 2370.38,1721.57 2244.35,1749.44C2118.33,1777.3 2038.77,1901.25 2066.47,2026.57Z" />
            <path d="M1125.24,2270.44L1127.25,2269.99C1195.56,2254.89 1241.98,2190.92 1234.47,2121.36C1179.25,1609.83 1489.88,1125.87 1979.91,959.967C2046.32,937.483 2085.42,868.923 2070.28,800.463L2070.03,799.34C2052.44,719.783 1969.75,672.684 1892.54,698.715C1279.11,905.534 890.078,1510.86 959.037,2150.77C967.816,2232.24 1045.23,2288.13 1125.24,2270.44Z" />
            <path d="M3209.23,1157.84L3342.41,1157.84C3485.86,1157.84 3562.84,1197.87 3562.84,1317.04C3562.84,1435.17 3485.86,1496.91 3342.41,1496.91L3209.23,1496.91L3209.23,1157.84ZM3830.61,1317.04C3830.61,1029.95 3620.26,941.07 3364.64,941.07L2935.6,941.07L2935.6,2147.78L3209.23,2147.78L3209.23,1713.68L3352.65,1713.68L3583,2147.78L3888.51,2147.78L3615.75,1665.32C3744.6,1607.08 3830.61,1494.36 3830.61,1317.04Z"/>
            <path d="M4680.02,1467.61L4532.38,1405.05C4416.66,1361.64 4335.77,1335.09 4335.77,1262.52C4335.77,1192.01 4396.8,1154.74 4486.76,1154.74C4604.67,1154.74 4679.88,1187.98 4764.85,1248.99L4902.44,1076.86C4793.52,973.276 4646.83,918.85 4501.67,918.85C4239.48,918.85 4059.46,1078.59 4059.46,1278.46C4059.46,1454.06 4181.49,1556.61 4315.21,1607.43L4472.42,1674.51C4586.62,1722.35 4658.34,1743.35 4658.34,1830.22C4658.34,1889.22 4604.81,1934.11 4488.92,1934.11C4371.94,1934.11 4259.38,1882.87 4168.13,1808.16L4011.41,1995.73C4139.37,2110.32 4307.76,2170 4470.83,2170C4769.54,2170 4937.83,1996.27 4937.83,1795.67C4937.83,1625.41 4838.03,1526.87 4680.02,1467.61Z" />
            <path d="M5791.04,1467.61L5643.4,1405.05C5527.68,1361.64 5446.79,1335.09 5446.79,1262.52C5446.79,1192.01 5507.82,1154.74 5597.78,1154.74C5715.69,1154.74 5790.9,1187.98 5875.87,1248.99L6013.46,1076.86C5904.54,973.276 5757.85,918.85 5612.69,918.85C5350.5,918.85 5170.49,1078.59 5170.49,1278.46C5170.49,1454.06 5292.51,1556.61 5426.23,1607.43L5583.44,1674.51C5697.64,1722.35 5769.36,1743.35 5769.36,1830.22C5769.36,1889.22 5715.83,1934.11 5599.94,1934.11C5482.96,1934.11 5370.4,1882.87 5279.15,1808.16L5122.43,1995.73C5250.39,2110.32 5418.78,2170 5581.85,2170C5880.56,2170 6048.85,1996.27 6048.85,1795.67C6048.85,1625.41 5949.05,1526.87 5791.04,1467.61Z" />
        </g>
    </g>
</svg>
